<svg width="20" height="20" viewBox="0 0 20 20" fill="none" xmlns="http://www.w3.org/2000/svg">
<path d="M0.0184739 2.09365C0.0196689 0.93736 0.957997 0.00183834 2.11429 0.00410606L17.8967 0.0350585C19.053 0.0373262 19.9894 0.976525 19.9882 2.13282L19.9719 17.9064C19.9707 19.0627 19.0324 19.9982 17.8761 19.9959L2.09366 19.965C0.937367 19.9627 0.000978523 19.0235 0.00217344 17.8672L0.0184739 2.09365Z" fill="#2196F3"/>
<g clip-path="url(#clip0_160_2376)">
<path d="M10.4818 9.26735L9.57658 9.26606L9.57529 10.1713L10.4805 10.1726L10.4818 9.26735Z" fill="white"/>
<path d="M14.4754 4.97418L13.9319 4.97341L13.9332 4.0682L13.0273 4.06691L13.026 4.97212L7.04731 4.96362L7.0486 4.05841L6.14273 4.05712L6.14144 4.96233L5.59792 4.96155C4.84867 4.96049 4.23825 5.56874 4.23718 6.31744L4.22583 14.2833C4.22477 15.032 4.83346 15.642 5.5827 15.643L8.59471 15.6473L8.66265 15.6474L10.2425 15.6497C9.92974 15.3909 9.65742 15.0851 9.43617 14.7433L8.66394 14.7422L8.596 14.7421L5.58399 14.7378C5.33424 14.7375 5.13134 14.5341 5.1317 14.2846L5.14021 8.31019L14.9236 8.32411L14.9223 9.22932L14.9222 9.27458L14.9222 9.27682C15.2636 9.49888 15.5689 9.77189 15.8269 10.0852L15.8281 9.27587L15.8282 9.2306L15.8323 6.33393C15.8334 5.58523 15.2247 4.97525 14.4754 4.97418ZM14.9249 7.4189L5.1415 7.40498L5.14305 6.31873C5.1434 6.06916 5.34688 5.86641 5.59663 5.86676L6.14015 5.86754L6.13886 6.77275L7.04473 6.77404L7.04602 5.86883L13.0247 5.87733L13.0235 6.78254L13.9293 6.78383L13.9306 5.87862L14.4741 5.87939C14.7239 5.87975 14.9268 6.08308 14.9264 6.33264L14.9249 7.4189Z" fill="white"/>
<path d="M12.769 9.54234C11.0832 9.53994 9.70976 10.9085 9.70736 12.5931C9.70496 14.2776 11.0745 15.6501 12.7603 15.6525C14.4461 15.6549 15.8196 14.2863 15.822 12.6018C15.8244 10.9172 14.4548 9.54474 12.769 9.54234ZM12.7616 14.7473C11.5753 14.7456 10.6115 13.7798 10.6132 12.5944C10.6149 11.4089 11.5814 10.4459 12.7677 10.4475C13.954 10.4492 14.9178 11.415 14.9161 12.6005C14.9144 13.7859 13.9479 14.749 12.7616 14.7473Z" fill="white"/>
<path d="M13.1978 11.0809L12.292 11.0796L12.2892 13.0484L13.965 13.0508L13.9663 12.1456L13.1963 12.1445L13.1978 11.0809Z" fill="white"/>
<path d="M8.67048 11.0748L7.76527 11.0735L7.76398 11.9787L8.66919 11.98L8.67048 11.0748Z" fill="white"/>
<path d="M6.85489 11.0727L5.94968 11.0714L5.94839 11.9766L6.8536 11.9779L6.85489 11.0727Z" fill="white"/>
<path d="M6.85898 9.26121L5.95377 9.25992L5.95248 10.1651L6.85769 10.1664L6.85898 9.26121Z" fill="white"/>
<path d="M6.85489 12.8842L5.94968 12.8829L5.94839 13.7881L6.8536 13.7894L6.85489 12.8842Z" fill="white"/>
<path d="M8.67457 9.2653L7.76936 9.26401L7.76807 10.1692L8.67328 10.1705L8.67457 9.2653Z" fill="white"/>
<path d="M8.66639 12.8863L7.76118 12.885L7.75989 13.7902L8.6651 13.7915L8.66639 12.8863Z" fill="white"/>
</g>
<defs>
<clipPath id="clip0_160_2376">
<path d="M4.20144 6.28914C4.20263 5.13285 5.14096 4.19733 6.29725 4.19959L13.7051 4.21412C14.8614 4.21639 15.7977 5.15559 15.7966 6.31188L15.7867 15.8045L4.19163 15.7818L4.20144 6.28914Z" fill="white"/>
</clipPath>
</defs>
</svg>
