<svg width="8" height="11" viewBox="0 0 8 11" fill="none" xmlns="http://www.w3.org/2000/svg">
<path d="M6.75181 4.22109L3.94455 4.21709L3.94995 0.423889C3.95005 0.35086 3.92376 0.279946 3.87535 0.222709C3.82695 0.165473 3.75928 0.12529 3.68339 0.108712C3.60751 0.0921338 3.52787 0.100138 3.45746 0.131421C3.38706 0.162703 3.33005 0.215418 3.29571 0.280971L0.135108 6.31414C0.109506 6.36334 0.0976607 6.41783 0.100683 6.47249C0.103706 6.52716 0.121497 6.58022 0.152387 6.62668C0.183277 6.67314 0.226254 6.71149 0.277285 6.73812C0.328315 6.76476 0.385727 6.7788 0.444131 6.77895L3.25139 6.78294L3.24599 10.5771C3.24605 10.6498 3.27229 10.7204 3.32048 10.7774C3.36866 10.8345 3.43596 10.8746 3.51149 10.8913C3.53734 10.8969 3.56377 10.8997 3.59028 10.8998C3.65478 10.8998 3.718 10.8829 3.77276 10.851C3.82751 10.819 3.87161 10.7733 3.90003 10.7191L7.06063 4.68589C7.08617 4.6367 7.09797 4.58225 7.09493 4.52761C7.0919 4.47298 7.07412 4.41996 7.04326 4.37352C7.0124 4.32708 6.96948 4.28873 6.9185 4.26207C6.86753 4.23541 6.81017 4.22131 6.75181 4.22109ZM3.93748 9.18182L3.94135 6.46062C3.94142 6.37496 3.9052 6.29277 3.84063 6.23212C3.77607 6.17147 3.68846 6.13733 3.59706 6.1372L0.996653 6.1335L3.25826 1.8184L3.25439 4.53941C3.25435 4.58184 3.26324 4.62387 3.28053 4.66308C3.29782 4.7023 3.32319 4.73794 3.35518 4.76798C3.38717 4.79801 3.42515 4.82184 3.46697 4.83812C3.50878 4.85439 3.5536 4.86279 3.59888 4.86283L6.19928 4.86653L3.93748 9.18182Z" fill="#2196F3" stroke="#2196F3" stroke-width="0.2"/>
</svg>
