<svg width="12" height="11" viewBox="0 0 12 11" fill="none" xmlns="http://www.w3.org/2000/svg">
<g clip-path="url(#clip0_160_2407)">
<path fill-rule="evenodd" clip-rule="evenodd" d="M7.28496 2.74932C7.28505 3.03377 7.19168 3.31125 7.01772 3.54354C6.84375 3.77584 6.59775 3.95152 6.31359 4.0464V5.04098H7.77064C8.15708 5.04098 8.52768 5.18585 8.80093 5.44371C9.07418 5.70157 9.22769 6.05131 9.22769 6.41598V6.95223C9.55189 7.06035 9.82513 7.27315 9.99914 7.55301C10.1731 7.83287 10.2367 8.16177 10.1786 8.48158C10.1204 8.80139 9.94439 9.09151 9.6815 9.30066C9.41862 9.50981 9.08585 9.62452 8.74201 9.62452C8.39817 9.62452 8.0654 9.50981 7.80252 9.30066C7.53964 9.09151 7.36357 8.80139 7.30545 8.48158C7.24732 8.16177 7.31088 7.83287 7.48489 7.55301C7.65889 7.27315 7.93214 7.06035 8.25633 6.95223V6.41598C8.25633 6.29442 8.20516 6.17784 8.11407 6.09189C8.02299 6.00593 7.89945 5.95765 7.77064 5.95765H3.88517C3.75636 5.95765 3.63282 6.00593 3.54174 6.09189C3.45066 6.17784 3.39949 6.29442 3.39949 6.41598V6.95223C3.72368 7.06035 3.99692 7.27315 4.17093 7.55301C4.34493 7.83287 4.40849 8.16177 4.35036 8.48158C4.29224 8.80139 4.11618 9.09151 3.8533 9.30066C3.59042 9.50981 3.25764 9.62452 2.9138 9.62452C2.56996 9.62452 2.23719 9.50981 1.97431 9.30066C1.71143 9.09151 1.53537 8.80139 1.47724 8.48158C1.41912 8.16177 1.48267 7.83287 1.65668 7.55301C1.83068 7.27315 2.10393 7.06035 2.42812 6.95223V6.41598C2.42812 6.05131 2.58163 5.70157 2.85488 5.44371C3.12813 5.18585 3.49874 5.04098 3.88517 5.04098H5.34222V4.0464C5.09023 3.96245 4.86754 3.81474 4.6985 3.61941C4.52946 3.42408 4.42059 3.18865 4.38378 2.93886C4.34697 2.68908 4.38363 2.43455 4.48977 2.20311C4.59591 1.97166 4.76744 1.77221 4.9856 1.62655C5.20376 1.4809 5.46015 1.39465 5.72676 1.37723C5.99336 1.35981 6.2599 1.4119 6.49725 1.52779C6.7346 1.64369 6.93361 1.81893 7.07253 2.03437C7.21146 2.2498 7.28494 2.49714 7.28496 2.74932ZM5.82791 2.29099C5.6991 2.29099 5.57556 2.33928 5.48448 2.42523C5.39339 2.51119 5.34222 2.62777 5.34222 2.74932C5.34222 2.87088 5.39339 2.98746 5.48448 3.07341C5.57556 3.15937 5.6991 3.20766 5.82791 3.20766C5.95672 3.20766 6.08025 3.15937 6.17134 3.07341C6.26242 2.98746 6.31359 2.87088 6.31359 2.74932C6.31359 2.62777 6.26242 2.51119 6.17134 2.42523C6.08025 2.33928 5.95672 2.29099 5.82791 2.29099ZM2.9138 7.79097C2.78499 7.79097 2.66146 7.83926 2.57037 7.92521C2.47929 8.01117 2.42812 8.12775 2.42812 8.2493C2.42812 8.37086 2.47929 8.48744 2.57037 8.57339C2.66146 8.65935 2.78499 8.70763 2.9138 8.70763C3.04261 8.70763 3.16615 8.65935 3.25723 8.57339C3.34832 8.48744 3.39949 8.37086 3.39949 8.2493C3.39949 8.12775 3.34832 8.01117 3.25723 7.92521C3.16615 7.83926 3.04261 7.79097 2.9138 7.79097ZM8.74201 7.79097C8.6132 7.79097 8.48966 7.83926 8.39858 7.92521C8.3075 8.01117 8.25633 8.12775 8.25633 8.2493C8.25633 8.37086 8.3075 8.48744 8.39858 8.57339C8.48966 8.65935 8.6132 8.70763 8.74201 8.70763C8.87082 8.70763 8.99436 8.65935 9.08544 8.57339C9.17652 8.48744 9.22769 8.37086 9.22769 8.2493C9.22769 8.12775 9.17652 8.01117 9.08544 7.92521C8.99436 7.83926 8.87082 7.79097 8.74201 7.79097Z" fill="#223484"/>
</g>
<defs>
<clipPath id="clip0_160_2407">
<rect width="11.6157" height="10.9615" fill="white" transform="scale(1.00351)"/>
</clipPath>
</defs>
</svg>
